<mxfile host="app.diagrams.net" modified="2020-10-28T16:55:27.654Z" agent="5.0 (Windows NT 10.0; Win64; x64) AppleWebKit/537.36 (KHTML, like Gecko) Chrome/86.0.4240.111 Safari/537.36 Edg/86.0.622.51" etag="c9HS_YETOMn_uo2FASq5" version="13.8.0" type="github">
  <diagram id="R2lEEEUBdFMjLlhIrx00" name="Page-1">
    <mxGraphModel dx="910" dy="413" grid="1" gridSize="10" guides="1" tooltips="1" connect="1" arrows="1" fold="1" page="1" pageScale="1" pageWidth="850" pageHeight="1100" math="0" shadow="0" extFonts="Permanent Marker^https://fonts.googleapis.com/css?family=Permanent+Marker">
      <root>
        <mxCell id="0" />
        <mxCell id="1" parent="0" />
        <mxCell id="8zmCn0OOBzQkLj1N-7To-1" value="Team" style="whiteSpace=wrap;html=1;align=center;" parent="1" vertex="1">
          <mxGeometry x="210" y="210" width="100" height="40" as="geometry" />
        </mxCell>
        <mxCell id="8zmCn0OOBzQkLj1N-7To-2" value="Name" style="ellipse;whiteSpace=wrap;html=1;align=center;fontStyle=4;" parent="1" vertex="1">
          <mxGeometry x="110" y="160" width="100" height="40" as="geometry" />
        </mxCell>
        <mxCell id="8zmCn0OOBzQkLj1N-7To-4" value="Uniform Color" style="ellipse;shape=doubleEllipse;margin=3;whiteSpace=wrap;html=1;align=center;" parent="1" vertex="1">
          <mxGeometry x="220" y="160" width="100" height="40" as="geometry" />
        </mxCell>
        <mxCell id="8zmCn0OOBzQkLj1N-7To-7" value="Owner" style="ellipse;whiteSpace=wrap;html=1;align=center;" parent="1" vertex="1">
          <mxGeometry x="330" y="210" width="100" height="40" as="geometry" />
        </mxCell>
        <mxCell id="8zmCn0OOBzQkLj1N-7To-9" value="" style="endArrow=none;html=1;rounded=0;exitX=0.5;exitY=1;exitDx=0;exitDy=0;entryX=0;entryY=0;entryDx=0;entryDy=0;" parent="1" source="8zmCn0OOBzQkLj1N-7To-2" target="8zmCn0OOBzQkLj1N-7To-1" edge="1">
          <mxGeometry relative="1" as="geometry">
            <mxPoint x="180" y="230" as="sourcePoint" />
            <mxPoint x="340" y="230" as="targetPoint" />
          </mxGeometry>
        </mxCell>
        <mxCell id="8zmCn0OOBzQkLj1N-7To-10" value="" style="endArrow=none;html=1;rounded=0;entryX=0.5;entryY=1;entryDx=0;entryDy=0;exitX=0.75;exitY=0;exitDx=0;exitDy=0;" parent="1" source="8zmCn0OOBzQkLj1N-7To-1" target="8zmCn0OOBzQkLj1N-7To-4" edge="1">
          <mxGeometry relative="1" as="geometry">
            <mxPoint x="180" y="230" as="sourcePoint" />
            <mxPoint x="340" y="230" as="targetPoint" />
          </mxGeometry>
        </mxCell>
        <mxCell id="8zmCn0OOBzQkLj1N-7To-11" value="" style="endArrow=none;html=1;rounded=0;entryX=0;entryY=0.5;entryDx=0;entryDy=0;exitX=1;exitY=0.5;exitDx=0;exitDy=0;" parent="1" source="8zmCn0OOBzQkLj1N-7To-1" target="8zmCn0OOBzQkLj1N-7To-7" edge="1">
          <mxGeometry relative="1" as="geometry">
            <mxPoint x="180" y="230" as="sourcePoint" />
            <mxPoint x="320" y="230" as="targetPoint" />
          </mxGeometry>
        </mxCell>
        <mxCell id="8zmCn0OOBzQkLj1N-7To-14" value="Season" style="whiteSpace=wrap;html=1;align=center;" parent="1" vertex="1">
          <mxGeometry x="540" y="200" width="100" height="40" as="geometry" />
        </mxCell>
        <mxCell id="8zmCn0OOBzQkLj1N-7To-15" value="Season_Number" style="ellipse;whiteSpace=wrap;html=1;align=center;fontStyle=4;" parent="1" vertex="1">
          <mxGeometry x="450" y="160" width="100" height="40" as="geometry" />
        </mxCell>
        <mxCell id="8zmCn0OOBzQkLj1N-7To-16" value="Price" style="ellipse;whiteSpace=wrap;html=1;align=center;" parent="1" vertex="1">
          <mxGeometry x="90" y="220" width="100" height="40" as="geometry" />
        </mxCell>
        <mxCell id="8zmCn0OOBzQkLj1N-7To-17" value="" style="endArrow=none;html=1;rounded=0;exitX=1;exitY=0.5;exitDx=0;exitDy=0;entryX=0;entryY=0.75;entryDx=0;entryDy=0;" parent="1" source="8zmCn0OOBzQkLj1N-7To-16" target="8zmCn0OOBzQkLj1N-7To-1" edge="1">
          <mxGeometry relative="1" as="geometry">
            <mxPoint x="310" y="180" as="sourcePoint" />
            <mxPoint x="470" y="180" as="targetPoint" />
          </mxGeometry>
        </mxCell>
        <mxCell id="8zmCn0OOBzQkLj1N-7To-18" value="" style="endArrow=none;html=1;rounded=0;exitX=1;exitY=1;exitDx=0;exitDy=0;entryX=0;entryY=0;entryDx=0;entryDy=0;" parent="1" source="8zmCn0OOBzQkLj1N-7To-15" target="8zmCn0OOBzQkLj1N-7To-14" edge="1">
          <mxGeometry relative="1" as="geometry">
            <mxPoint x="420" y="180" as="sourcePoint" />
            <mxPoint x="580" y="180" as="targetPoint" />
          </mxGeometry>
        </mxCell>
        <mxCell id="8zmCn0OOBzQkLj1N-7To-20" value="Ground" style="whiteSpace=wrap;html=1;align=center;" parent="1" vertex="1">
          <mxGeometry x="210" y="470" width="100" height="40" as="geometry" />
        </mxCell>
        <mxCell id="8zmCn0OOBzQkLj1N-7To-21" value="Capacity" style="ellipse;whiteSpace=wrap;html=1;align=center;" parent="1" vertex="1">
          <mxGeometry x="100" y="420" width="100" height="40" as="geometry" />
        </mxCell>
        <mxCell id="8zmCn0OOBzQkLj1N-7To-24" value="Name" style="ellipse;whiteSpace=wrap;html=1;align=center;fontStyle=4;" parent="1" vertex="1">
          <mxGeometry x="100" y="520" width="100" height="40" as="geometry" />
        </mxCell>
        <mxCell id="8zmCn0OOBzQkLj1N-7To-25" value="Match" style="whiteSpace=wrap;html=1;align=center;" parent="1" vertex="1">
          <mxGeometry x="590" y="470" width="100" height="40" as="geometry" />
        </mxCell>
        <mxCell id="8zmCn0OOBzQkLj1N-7To-26" value="Runs" style="ellipse;whiteSpace=wrap;html=1;align=center;" parent="1" vertex="1">
          <mxGeometry x="590" y="420" width="100" height="40" as="geometry" />
        </mxCell>
        <mxCell id="8zmCn0OOBzQkLj1N-7To-27" value="Match_ID" style="ellipse;whiteSpace=wrap;html=1;align=center;fontStyle=4;" parent="1" vertex="1">
          <mxGeometry x="470" y="420" width="100" height="40" as="geometry" />
        </mxCell>
        <mxCell id="8zmCn0OOBzQkLj1N-7To-28" value="Wickets" style="ellipse;whiteSpace=wrap;html=1;align=center;" parent="1" vertex="1">
          <mxGeometry x="700" y="420" width="100" height="40" as="geometry" />
        </mxCell>
        <mxCell id="8zmCn0OOBzQkLj1N-7To-29" value="Overs" style="ellipse;whiteSpace=wrap;html=1;align=center;" parent="1" vertex="1">
          <mxGeometry x="700" y="470" width="100" height="40" as="geometry" />
        </mxCell>
        <mxCell id="8zmCn0OOBzQkLj1N-7To-30" value="List of Umpires" style="ellipse;shape=doubleEllipse;margin=3;whiteSpace=wrap;html=1;align=center;" parent="1" vertex="1">
          <mxGeometry x="700" y="530" width="100" height="40" as="geometry" />
        </mxCell>
        <mxCell id="8zmCn0OOBzQkLj1N-7To-31" value="Type" style="ellipse;whiteSpace=wrap;html=1;align=center;" parent="1" vertex="1">
          <mxGeometry x="590" y="530" width="100" height="40" as="geometry" />
        </mxCell>
        <mxCell id="8zmCn0OOBzQkLj1N-7To-35" value="Time" style="ellipse;whiteSpace=wrap;html=1;align=center;" parent="1" vertex="1">
          <mxGeometry x="470" y="530" width="100" height="40" as="geometry" />
        </mxCell>
        <mxCell id="8zmCn0OOBzQkLj1N-7To-36" value="Date" style="ellipse;whiteSpace=wrap;html=1;align=center;" parent="1" vertex="1">
          <mxGeometry x="470" y="470" width="100" height="40" as="geometry" />
        </mxCell>
        <mxCell id="8zmCn0OOBzQkLj1N-7To-37" value="" style="endArrow=none;html=1;rounded=0;entryX=1;entryY=1;entryDx=0;entryDy=0;exitX=0;exitY=0;exitDx=0;exitDy=0;" parent="1" source="8zmCn0OOBzQkLj1N-7To-25" target="8zmCn0OOBzQkLj1N-7To-27" edge="1">
          <mxGeometry relative="1" as="geometry">
            <mxPoint x="400" y="510" as="sourcePoint" />
            <mxPoint x="560" y="510" as="targetPoint" />
          </mxGeometry>
        </mxCell>
        <mxCell id="8zmCn0OOBzQkLj1N-7To-38" value="" style="endArrow=none;html=1;rounded=0;entryX=0.5;entryY=1;entryDx=0;entryDy=0;exitX=0.5;exitY=0;exitDx=0;exitDy=0;" parent="1" source="8zmCn0OOBzQkLj1N-7To-25" target="8zmCn0OOBzQkLj1N-7To-26" edge="1">
          <mxGeometry relative="1" as="geometry">
            <mxPoint x="400" y="510" as="sourcePoint" />
            <mxPoint x="560" y="510" as="targetPoint" />
          </mxGeometry>
        </mxCell>
        <mxCell id="8zmCn0OOBzQkLj1N-7To-39" value="" style="endArrow=none;html=1;rounded=0;entryX=0.5;entryY=1;entryDx=0;entryDy=0;exitX=0.5;exitY=0;exitDx=0;exitDy=0;" parent="1" source="8zmCn0OOBzQkLj1N-7To-29" target="8zmCn0OOBzQkLj1N-7To-28" edge="1">
          <mxGeometry relative="1" as="geometry">
            <mxPoint x="400" y="510" as="sourcePoint" />
            <mxPoint x="560" y="510" as="targetPoint" />
          </mxGeometry>
        </mxCell>
        <mxCell id="8zmCn0OOBzQkLj1N-7To-40" value="" style="endArrow=none;html=1;rounded=0;entryX=0;entryY=0.5;entryDx=0;entryDy=0;exitX=1;exitY=0.5;exitDx=0;exitDy=0;" parent="1" source="8zmCn0OOBzQkLj1N-7To-36" target="8zmCn0OOBzQkLj1N-7To-25" edge="1">
          <mxGeometry relative="1" as="geometry">
            <mxPoint x="400" y="510" as="sourcePoint" />
            <mxPoint x="560" y="510" as="targetPoint" />
          </mxGeometry>
        </mxCell>
        <mxCell id="8zmCn0OOBzQkLj1N-7To-41" value="" style="endArrow=none;html=1;rounded=0;entryX=0;entryY=0.5;entryDx=0;entryDy=0;exitX=1;exitY=0.5;exitDx=0;exitDy=0;" parent="1" source="8zmCn0OOBzQkLj1N-7To-25" target="8zmCn0OOBzQkLj1N-7To-29" edge="1">
          <mxGeometry relative="1" as="geometry">
            <mxPoint x="400" y="510" as="sourcePoint" />
            <mxPoint x="560" y="510" as="targetPoint" />
          </mxGeometry>
        </mxCell>
        <mxCell id="8zmCn0OOBzQkLj1N-7To-42" value="" style="endArrow=none;html=1;rounded=0;entryX=0;entryY=1;entryDx=0;entryDy=0;exitX=1;exitY=0;exitDx=0;exitDy=0;" parent="1" source="8zmCn0OOBzQkLj1N-7To-35" target="8zmCn0OOBzQkLj1N-7To-25" edge="1">
          <mxGeometry relative="1" as="geometry">
            <mxPoint x="400" y="510" as="sourcePoint" />
            <mxPoint x="560" y="510" as="targetPoint" />
          </mxGeometry>
        </mxCell>
        <mxCell id="8zmCn0OOBzQkLj1N-7To-43" value="" style="endArrow=none;html=1;rounded=0;entryX=0.5;entryY=1;entryDx=0;entryDy=0;exitX=0.5;exitY=0;exitDx=0;exitDy=0;" parent="1" source="8zmCn0OOBzQkLj1N-7To-31" target="8zmCn0OOBzQkLj1N-7To-25" edge="1">
          <mxGeometry relative="1" as="geometry">
            <mxPoint x="400" y="510" as="sourcePoint" />
            <mxPoint x="560" y="510" as="targetPoint" />
          </mxGeometry>
        </mxCell>
        <mxCell id="8zmCn0OOBzQkLj1N-7To-44" value="" style="endArrow=none;html=1;rounded=0;entryX=1;entryY=1;entryDx=0;entryDy=0;exitX=0.5;exitY=0;exitDx=0;exitDy=0;" parent="1" source="8zmCn0OOBzQkLj1N-7To-30" target="8zmCn0OOBzQkLj1N-7To-25" edge="1">
          <mxGeometry relative="1" as="geometry">
            <mxPoint x="400" y="510" as="sourcePoint" />
            <mxPoint x="560" y="510" as="targetPoint" />
          </mxGeometry>
        </mxCell>
        <mxCell id="8zmCn0OOBzQkLj1N-7To-45" value="" style="endArrow=none;html=1;rounded=0;exitX=1;exitY=1;exitDx=0;exitDy=0;entryX=0;entryY=0;entryDx=0;entryDy=0;" parent="1" source="8zmCn0OOBzQkLj1N-7To-21" target="8zmCn0OOBzQkLj1N-7To-20" edge="1">
          <mxGeometry relative="1" as="geometry">
            <mxPoint x="290" y="510" as="sourcePoint" />
            <mxPoint x="450" y="510" as="targetPoint" />
          </mxGeometry>
        </mxCell>
        <mxCell id="8zmCn0OOBzQkLj1N-7To-46" value="" style="endArrow=none;html=1;rounded=0;exitX=1;exitY=0;exitDx=0;exitDy=0;entryX=0;entryY=1;entryDx=0;entryDy=0;" parent="1" source="8zmCn0OOBzQkLj1N-7To-24" target="8zmCn0OOBzQkLj1N-7To-20" edge="1">
          <mxGeometry relative="1" as="geometry">
            <mxPoint x="290" y="510" as="sourcePoint" />
            <mxPoint x="450" y="510" as="targetPoint" />
          </mxGeometry>
        </mxCell>
        <mxCell id="9Z8YSfCu5yQqTVgmfPrZ-1" value="ScoreCard" style="shape=ext;margin=3;double=1;whiteSpace=wrap;html=1;align=center;" vertex="1" parent="1">
          <mxGeometry x="180" y="650" width="100" height="40" as="geometry" />
        </mxCell>
        <mxCell id="9Z8YSfCu5yQqTVgmfPrZ-2" value="Runs" style="ellipse;whiteSpace=wrap;html=1;align=center;" vertex="1" parent="1">
          <mxGeometry x="50" y="650" width="100" height="40" as="geometry" />
        </mxCell>
        <mxCell id="9Z8YSfCu5yQqTVgmfPrZ-3" value="Winner" style="ellipse;whiteSpace=wrap;html=1;align=center;" vertex="1" parent="1">
          <mxGeometry x="110" y="710" width="100" height="40" as="geometry" />
        </mxCell>
        <mxCell id="9Z8YSfCu5yQqTVgmfPrZ-4" value="Team A" style="ellipse;whiteSpace=wrap;html=1;align=center;" vertex="1" parent="1">
          <mxGeometry x="120" y="590" width="100" height="40" as="geometry" />
        </mxCell>
        <mxCell id="9Z8YSfCu5yQqTVgmfPrZ-5" value="Team B" style="ellipse;whiteSpace=wrap;html=1;align=center;" vertex="1" parent="1">
          <mxGeometry x="220" y="710" width="100" height="40" as="geometry" />
        </mxCell>
        <mxCell id="9Z8YSfCu5yQqTVgmfPrZ-6" value="" style="endArrow=none;html=1;rounded=0;exitX=1;exitY=0.5;exitDx=0;exitDy=0;entryX=0;entryY=0.5;entryDx=0;entryDy=0;" edge="1" parent="1" source="9Z8YSfCu5yQqTVgmfPrZ-2" target="9Z8YSfCu5yQqTVgmfPrZ-1">
          <mxGeometry relative="1" as="geometry">
            <mxPoint x="300" y="590" as="sourcePoint" />
            <mxPoint x="460" y="590" as="targetPoint" />
          </mxGeometry>
        </mxCell>
        <mxCell id="9Z8YSfCu5yQqTVgmfPrZ-7" value="" style="endArrow=none;html=1;rounded=0;exitX=0.5;exitY=0;exitDx=0;exitDy=0;entryX=0.25;entryY=1;entryDx=0;entryDy=0;" edge="1" parent="1" source="9Z8YSfCu5yQqTVgmfPrZ-3" target="9Z8YSfCu5yQqTVgmfPrZ-1">
          <mxGeometry relative="1" as="geometry">
            <mxPoint x="300" y="590" as="sourcePoint" />
            <mxPoint x="460" y="590" as="targetPoint" />
          </mxGeometry>
        </mxCell>
        <mxCell id="9Z8YSfCu5yQqTVgmfPrZ-8" value="" style="endArrow=none;html=1;rounded=0;exitX=0.5;exitY=1;exitDx=0;exitDy=0;entryX=0;entryY=0;entryDx=0;entryDy=0;" edge="1" parent="1" source="9Z8YSfCu5yQqTVgmfPrZ-4" target="9Z8YSfCu5yQqTVgmfPrZ-1">
          <mxGeometry relative="1" as="geometry">
            <mxPoint x="300" y="590" as="sourcePoint" />
            <mxPoint x="460" y="590" as="targetPoint" />
          </mxGeometry>
        </mxCell>
        <mxCell id="9Z8YSfCu5yQqTVgmfPrZ-10" value="" style="endArrow=none;html=1;rounded=0;exitX=0.75;exitY=1;exitDx=0;exitDy=0;entryX=0.5;entryY=0;entryDx=0;entryDy=0;" edge="1" parent="1" source="9Z8YSfCu5yQqTVgmfPrZ-1" target="9Z8YSfCu5yQqTVgmfPrZ-5">
          <mxGeometry relative="1" as="geometry">
            <mxPoint x="420" y="610" as="sourcePoint" />
            <mxPoint x="580" y="610" as="targetPoint" />
          </mxGeometry>
        </mxCell>
        <mxCell id="9Z8YSfCu5yQqTVgmfPrZ-12" value="Player" style="whiteSpace=wrap;html=1;align=center;" vertex="1" parent="1">
          <mxGeometry x="630" y="660" width="100" height="40" as="geometry" />
        </mxCell>
        <mxCell id="9Z8YSfCu5yQqTVgmfPrZ-13" value="Name" style="ellipse;whiteSpace=wrap;html=1;align=center;" vertex="1" parent="1">
          <mxGeometry x="750" y="660" width="100" height="40" as="geometry" />
        </mxCell>
        <mxCell id="9Z8YSfCu5yQqTVgmfPrZ-14" value="Shirt Number" style="ellipse;whiteSpace=wrap;html=1;align=center;" vertex="1" parent="1">
          <mxGeometry x="610" y="600" width="100" height="40" as="geometry" />
        </mxCell>
        <mxCell id="9Z8YSfCu5yQqTVgmfPrZ-15" value="Nationality" style="ellipse;whiteSpace=wrap;html=1;align=center;" vertex="1" parent="1">
          <mxGeometry x="740" y="600" width="100" height="40" as="geometry" />
        </mxCell>
        <mxCell id="9Z8YSfCu5yQqTVgmfPrZ-16" value="Player_ID" style="ellipse;whiteSpace=wrap;html=1;align=center;fontStyle=4;" vertex="1" parent="1">
          <mxGeometry x="610" y="730" width="100" height="40" as="geometry" />
        </mxCell>
        <mxCell id="9Z8YSfCu5yQqTVgmfPrZ-17" value="Category&amp;nbsp;" style="ellipse;whiteSpace=wrap;html=1;align=center;" vertex="1" parent="1">
          <mxGeometry x="740" y="710" width="100" height="40" as="geometry" />
        </mxCell>
        <mxCell id="9Z8YSfCu5yQqTVgmfPrZ-18" value="" style="endArrow=none;html=1;rounded=0;entryX=0.5;entryY=1;entryDx=0;entryDy=0;exitX=0.25;exitY=0;exitDx=0;exitDy=0;" edge="1" parent="1" source="9Z8YSfCu5yQqTVgmfPrZ-12" target="9Z8YSfCu5yQqTVgmfPrZ-14">
          <mxGeometry relative="1" as="geometry">
            <mxPoint x="420" y="610" as="sourcePoint" />
            <mxPoint x="580" y="610" as="targetPoint" />
          </mxGeometry>
        </mxCell>
        <mxCell id="9Z8YSfCu5yQqTVgmfPrZ-19" value="" style="endArrow=none;html=1;rounded=0;entryX=0;entryY=1;entryDx=0;entryDy=0;exitX=1;exitY=0;exitDx=0;exitDy=0;" edge="1" parent="1" source="9Z8YSfCu5yQqTVgmfPrZ-12" target="9Z8YSfCu5yQqTVgmfPrZ-15">
          <mxGeometry relative="1" as="geometry">
            <mxPoint x="420" y="610" as="sourcePoint" />
            <mxPoint x="580" y="610" as="targetPoint" />
          </mxGeometry>
        </mxCell>
        <mxCell id="9Z8YSfCu5yQqTVgmfPrZ-20" value="" style="endArrow=none;html=1;rounded=0;entryX=0;entryY=0.5;entryDx=0;entryDy=0;exitX=1;exitY=0.5;exitDx=0;exitDy=0;" edge="1" parent="1" source="9Z8YSfCu5yQqTVgmfPrZ-12" target="9Z8YSfCu5yQqTVgmfPrZ-13">
          <mxGeometry relative="1" as="geometry">
            <mxPoint x="420" y="610" as="sourcePoint" />
            <mxPoint x="580" y="610" as="targetPoint" />
          </mxGeometry>
        </mxCell>
        <mxCell id="9Z8YSfCu5yQqTVgmfPrZ-21" value="" style="endArrow=none;html=1;rounded=0;entryX=0.021;entryY=0.348;entryDx=0;entryDy=0;entryPerimeter=0;exitX=0.75;exitY=1;exitDx=0;exitDy=0;" edge="1" parent="1" source="9Z8YSfCu5yQqTVgmfPrZ-12" target="9Z8YSfCu5yQqTVgmfPrZ-17">
          <mxGeometry relative="1" as="geometry">
            <mxPoint x="420" y="610" as="sourcePoint" />
            <mxPoint x="580" y="610" as="targetPoint" />
          </mxGeometry>
        </mxCell>
        <mxCell id="9Z8YSfCu5yQqTVgmfPrZ-23" value="" style="endArrow=none;html=1;rounded=0;entryX=0.5;entryY=1;entryDx=0;entryDy=0;exitX=0.5;exitY=0;exitDx=0;exitDy=0;" edge="1" parent="1" source="9Z8YSfCu5yQqTVgmfPrZ-16" target="9Z8YSfCu5yQqTVgmfPrZ-12">
          <mxGeometry relative="1" as="geometry">
            <mxPoint x="420" y="610" as="sourcePoint" />
            <mxPoint x="580" y="610" as="targetPoint" />
          </mxGeometry>
        </mxCell>
      </root>
    </mxGraphModel>
  </diagram>
</mxfile>
